<mxfile host="app.diagrams.net" agent="Mozilla/5.0 (Windows NT 10.0; Win64; x64) AppleWebKit/537.36 (KHTML, like Gecko) Chrome/132.0.0.0 YaBrowser/25.2.0.0 Safari/537.36" version="26.2.4">
  <diagram name="Страница — 1" id="ClNFONBPy-d1YckZMRn8">
    <mxGraphModel dx="1502" dy="356" grid="1" gridSize="10" guides="1" tooltips="1" connect="1" arrows="1" fold="1" page="1" pageScale="1" pageWidth="827" pageHeight="1169" math="0" shadow="0">
      <root>
        <mxCell id="0" />
        <mxCell id="1" parent="0" />
        <mxCell id="xICqTb8I6hwcPqg-6-yf-1" value="Client" style="rounded=1;whiteSpace=wrap;html=1;" vertex="1" parent="1">
          <mxGeometry y="70" width="90" height="30" as="geometry" />
        </mxCell>
        <mxCell id="xICqTb8I6hwcPqg-6-yf-2" value="Manager" style="rounded=1;whiteSpace=wrap;html=1;" vertex="1" parent="1">
          <mxGeometry x="160" y="70" width="90" height="30" as="geometry" />
        </mxCell>
        <mxCell id="xICqTb8I6hwcPqg-6-yf-3" value="Сlaims adjuster" style="rounded=1;whiteSpace=wrap;html=1;" vertex="1" parent="1">
          <mxGeometry x="280" y="70" width="90" height="30" as="geometry" />
        </mxCell>
        <mxCell id="xICqTb8I6hwcPqg-6-yf-4" value="Accounting" style="rounded=1;whiteSpace=wrap;html=1;" vertex="1" parent="1">
          <mxGeometry x="500" y="70" width="90" height="30" as="geometry" />
        </mxCell>
        <mxCell id="xICqTb8I6hwcPqg-6-yf-6" value="Lawyer" style="rounded=1;whiteSpace=wrap;html=1;" vertex="1" parent="1">
          <mxGeometry x="390" y="70" width="90" height="30" as="geometry" />
        </mxCell>
        <mxCell id="xICqTb8I6hwcPqg-6-yf-9" value="" style="endArrow=none;dashed=1;html=1;rounded=0;entryX=0.443;entryY=1.056;entryDx=0;entryDy=0;entryPerimeter=0;" edge="1" parent="1" source="xICqTb8I6hwcPqg-6-yf-16" target="xICqTb8I6hwcPqg-6-yf-1">
          <mxGeometry width="50" height="50" relative="1" as="geometry">
            <mxPoint x="39" y="640" as="sourcePoint" />
            <mxPoint x="40.000000000000114" y="205" as="targetPoint" />
          </mxGeometry>
        </mxCell>
        <mxCell id="xICqTb8I6hwcPqg-6-yf-10" value="" style="endArrow=none;dashed=1;html=1;rounded=0;entryX=0.443;entryY=1.056;entryDx=0;entryDy=0;entryPerimeter=0;" edge="1" parent="1" source="xICqTb8I6hwcPqg-6-yf-18">
          <mxGeometry width="50" height="50" relative="1" as="geometry">
            <mxPoint x="200" y="638.32" as="sourcePoint" />
            <mxPoint x="201" y="100.32" as="targetPoint" />
          </mxGeometry>
        </mxCell>
        <mxCell id="xICqTb8I6hwcPqg-6-yf-11" value="" style="endArrow=none;dashed=1;html=1;rounded=0;entryX=0.443;entryY=1.056;entryDx=0;entryDy=0;entryPerimeter=0;" edge="1" parent="1" source="xICqTb8I6hwcPqg-6-yf-21">
          <mxGeometry width="50" height="50" relative="1" as="geometry">
            <mxPoint x="320" y="638" as="sourcePoint" />
            <mxPoint x="321" y="100" as="targetPoint" />
          </mxGeometry>
        </mxCell>
        <mxCell id="xICqTb8I6hwcPqg-6-yf-12" value="" style="endArrow=none;dashed=1;html=1;rounded=0;entryX=0.443;entryY=1.056;entryDx=0;entryDy=0;entryPerimeter=0;" edge="1" parent="1" source="xICqTb8I6hwcPqg-6-yf-41">
          <mxGeometry width="50" height="50" relative="1" as="geometry">
            <mxPoint x="544.5" y="638" as="sourcePoint" />
            <mxPoint x="545.5" y="100" as="targetPoint" />
          </mxGeometry>
        </mxCell>
        <mxCell id="xICqTb8I6hwcPqg-6-yf-14" value="" style="endArrow=none;dashed=1;html=1;rounded=0;entryX=0.443;entryY=1.056;entryDx=0;entryDy=0;entryPerimeter=0;" edge="1" parent="1" source="xICqTb8I6hwcPqg-6-yf-25">
          <mxGeometry width="50" height="50" relative="1" as="geometry">
            <mxPoint x="434.5" y="638" as="sourcePoint" />
            <mxPoint x="435.5" y="100" as="targetPoint" />
          </mxGeometry>
        </mxCell>
        <mxCell id="xICqTb8I6hwcPqg-6-yf-15" value="" style="endArrow=none;dashed=1;html=1;rounded=0;" edge="1" parent="1" target="xICqTb8I6hwcPqg-6-yf-16">
          <mxGeometry width="50" height="50" relative="1" as="geometry">
            <mxPoint x="40" y="430" as="sourcePoint" />
            <mxPoint x="80" y="102" as="targetPoint" />
          </mxGeometry>
        </mxCell>
        <mxCell id="xICqTb8I6hwcPqg-6-yf-16" value="" style="html=1;points=[[0,0,0,0,5],[0,1,0,0,-5],[1,0,0,0,5],[1,1,0,0,-5]];perimeter=orthogonalPerimeter;outlineConnect=0;targetShapes=umlLifeline;portConstraint=eastwest;newEdgeStyle={&quot;curved&quot;:0,&quot;rounded&quot;:0};" vertex="1" parent="1">
          <mxGeometry x="35" y="140" width="10" height="260" as="geometry" />
        </mxCell>
        <mxCell id="xICqTb8I6hwcPqg-6-yf-17" value="" style="endArrow=none;dashed=1;html=1;rounded=0;entryX=0.443;entryY=1.056;entryDx=0;entryDy=0;entryPerimeter=0;" edge="1" parent="1" target="xICqTb8I6hwcPqg-6-yf-18">
          <mxGeometry width="50" height="50" relative="1" as="geometry">
            <mxPoint x="199" y="430" as="sourcePoint" />
            <mxPoint x="201" y="100.32" as="targetPoint" />
          </mxGeometry>
        </mxCell>
        <mxCell id="xICqTb8I6hwcPqg-6-yf-18" value="" style="html=1;points=[[0,0,0,0,5],[0,1,0,0,-5],[1,0,0,0,5],[1,1,0,0,-5]];perimeter=orthogonalPerimeter;outlineConnect=0;targetShapes=umlLifeline;portConstraint=eastwest;newEdgeStyle={&quot;curved&quot;:0,&quot;rounded&quot;:0};" vertex="1" parent="1">
          <mxGeometry x="195" y="140" width="10" height="160" as="geometry" />
        </mxCell>
        <mxCell id="xICqTb8I6hwcPqg-6-yf-19" value="&lt;font style=&quot;font-size: 10px;&quot;&gt;&amp;nbsp; Appling for payout&lt;/font&gt;" style="html=1;verticalAlign=bottom;endArrow=block;curved=0;rounded=0;" edge="1" parent="1" target="xICqTb8I6hwcPqg-6-yf-18">
          <mxGeometry x="0.0435" width="80" relative="1" as="geometry">
            <mxPoint x="40" y="140" as="sourcePoint" />
            <mxPoint x="160" y="140" as="targetPoint" />
            <mxPoint as="offset" />
          </mxGeometry>
        </mxCell>
        <mxCell id="xICqTb8I6hwcPqg-6-yf-20" value="" style="endArrow=none;dashed=1;html=1;rounded=0;entryX=0.443;entryY=1.056;entryDx=0;entryDy=0;entryPerimeter=0;" edge="1" parent="1" target="xICqTb8I6hwcPqg-6-yf-21">
          <mxGeometry width="50" height="50" relative="1" as="geometry">
            <mxPoint x="324" y="430" as="sourcePoint" />
            <mxPoint x="321" y="100" as="targetPoint" />
          </mxGeometry>
        </mxCell>
        <mxCell id="xICqTb8I6hwcPqg-6-yf-21" value="" style="html=1;points=[[0,0,0,0,5],[0,1,0,0,-5],[1,0,0,0,5],[1,1,0,0,-5]];perimeter=orthogonalPerimeter;outlineConnect=0;targetShapes=umlLifeline;portConstraint=eastwest;newEdgeStyle={&quot;curved&quot;:0,&quot;rounded&quot;:0};" vertex="1" parent="1">
          <mxGeometry x="320" y="170" width="10" height="50" as="geometry" />
        </mxCell>
        <mxCell id="xICqTb8I6hwcPqg-6-yf-22" value="&lt;font style=&quot;font-size: 8px;&quot;&gt;Registration of application&lt;/font&gt;" style="html=1;verticalAlign=bottom;endArrow=block;curved=0;rounded=0;" edge="1" parent="1">
          <mxGeometry x="-0.0909" width="80" relative="1" as="geometry">
            <mxPoint x="210" y="170" as="sourcePoint" />
            <mxPoint x="320" y="170" as="targetPoint" />
            <mxPoint as="offset" />
          </mxGeometry>
        </mxCell>
        <mxCell id="xICqTb8I6hwcPqg-6-yf-26" value="" style="endArrow=none;dashed=1;html=1;rounded=0;entryX=0.443;entryY=1.056;entryDx=0;entryDy=0;entryPerimeter=0;" edge="1" parent="1" target="xICqTb8I6hwcPqg-6-yf-25">
          <mxGeometry width="50" height="50" relative="1" as="geometry">
            <mxPoint x="434" y="430" as="sourcePoint" />
            <mxPoint x="435.5" y="100" as="targetPoint" />
          </mxGeometry>
        </mxCell>
        <mxCell id="xICqTb8I6hwcPqg-6-yf-25" value="" style="html=1;points=[[0,0,0,0,5],[0,1,0,0,-5],[1,0,0,0,5],[1,1,0,0,-5]];perimeter=orthogonalPerimeter;outlineConnect=0;targetShapes=umlLifeline;portConstraint=eastwest;newEdgeStyle={&quot;curved&quot;:0,&quot;rounded&quot;:0};" vertex="1" parent="1">
          <mxGeometry x="430" y="220" width="10" height="50" as="geometry" />
        </mxCell>
        <mxCell id="xICqTb8I6hwcPqg-6-yf-29" value="&lt;span style=&quot;font-size: 8px;&quot;&gt;Result of analysis of&amp;nbsp;&lt;/span&gt;&lt;div&gt;&lt;span style=&quot;font-size: 8px;&quot;&gt;assurance incident&lt;/span&gt;&lt;/div&gt;" style="html=1;verticalAlign=bottom;endArrow=block;curved=0;rounded=0;exitX=0.933;exitY=1.029;exitDx=0;exitDy=0;exitPerimeter=0;" edge="1" parent="1" source="xICqTb8I6hwcPqg-6-yf-21" target="xICqTb8I6hwcPqg-6-yf-25">
          <mxGeometry width="80" relative="1" as="geometry">
            <mxPoint x="340" y="220" as="sourcePoint" />
            <mxPoint x="410" y="190" as="targetPoint" />
          </mxGeometry>
        </mxCell>
        <mxCell id="xICqTb8I6hwcPqg-6-yf-30" value="Claims resolution&amp;nbsp;" style="html=1;verticalAlign=bottom;endArrow=open;dashed=1;endSize=8;curved=0;rounded=0;" edge="1" parent="1">
          <mxGeometry relative="1" as="geometry">
            <mxPoint x="430" y="269.99999999999994" as="sourcePoint" />
            <mxPoint x="205" y="270" as="targetPoint" />
            <Array as="points">
              <mxPoint x="370" y="270" />
            </Array>
          </mxGeometry>
        </mxCell>
        <mxCell id="xICqTb8I6hwcPqg-6-yf-32" value="&lt;font style=&quot;font-size: 10px;&quot;&gt;Statement of monetary&lt;/font&gt;&lt;div&gt;&lt;font style=&quot;font-size: 10px;&quot;&gt;&amp;nbsp;compensation /&lt;/font&gt;&lt;div&gt;&lt;font style=&quot;font-size: 10px;&quot;&gt;Rejection&lt;/font&gt;&lt;/div&gt;&lt;/div&gt;" style="html=1;verticalAlign=bottom;endArrow=open;dashed=1;endSize=8;curved=0;rounded=0;" edge="1" parent="1" target="xICqTb8I6hwcPqg-6-yf-16">
          <mxGeometry relative="1" as="geometry">
            <mxPoint x="190" y="300" as="sourcePoint" />
            <mxPoint x="110" y="300" as="targetPoint" />
          </mxGeometry>
        </mxCell>
        <mxCell id="xICqTb8I6hwcPqg-6-yf-42" value="" style="endArrow=none;dashed=1;html=1;rounded=0;entryX=0.443;entryY=1.056;entryDx=0;entryDy=0;entryPerimeter=0;" edge="1" parent="1" target="xICqTb8I6hwcPqg-6-yf-41">
          <mxGeometry width="50" height="50" relative="1" as="geometry">
            <mxPoint x="544" y="430" as="sourcePoint" />
            <mxPoint x="755.5" y="100" as="targetPoint" />
          </mxGeometry>
        </mxCell>
        <mxCell id="xICqTb8I6hwcPqg-6-yf-41" value="" style="html=1;points=[[0,0,0,0,5],[0,1,0,0,-5],[1,0,0,0,5],[1,1,0,0,-5]];perimeter=orthogonalPerimeter;outlineConnect=0;targetShapes=umlLifeline;portConstraint=eastwest;newEdgeStyle={&quot;curved&quot;:0,&quot;rounded&quot;:0};" vertex="1" parent="1">
          <mxGeometry x="540" y="340" width="10" height="60" as="geometry" />
        </mxCell>
        <mxCell id="xICqTb8I6hwcPqg-6-yf-43" value="Assurance payout&amp;nbsp;" style="html=1;verticalAlign=bottom;endArrow=open;dashed=1;endSize=8;curved=0;rounded=0;" edge="1" parent="1">
          <mxGeometry relative="1" as="geometry">
            <mxPoint x="540" y="400" as="sourcePoint" />
            <mxPoint x="50" y="400" as="targetPoint" />
          </mxGeometry>
        </mxCell>
        <mxCell id="xICqTb8I6hwcPqg-6-yf-61" value="&lt;span style=&quot;font-size: 10px;&quot;&gt;Appeal&lt;/span&gt;" style="html=1;verticalAlign=bottom;endArrow=block;labelBackgroundColor=none;fontFamily=Verdana;fontSize=12;elbow=vertical;edgeStyle=orthogonalEdgeStyle;curved=1;" edge="1" parent="1" source="xICqTb8I6hwcPqg-6-yf-16">
          <mxGeometry x="0.0007" y="-30" relative="1" as="geometry">
            <mxPoint x="35" y="345.13" as="sourcePoint" />
            <mxPoint x="30" y="139.95" as="targetPoint" />
            <Array as="points">
              <mxPoint x="-40" y="340" />
              <mxPoint x="-40" y="140" />
            </Array>
            <mxPoint as="offset" />
          </mxGeometry>
        </mxCell>
        <mxCell id="xICqTb8I6hwcPqg-6-yf-64" value="Claim for compensation" style="html=1;verticalAlign=bottom;endArrow=block;curved=0;rounded=0;" edge="1" parent="1">
          <mxGeometry width="80" relative="1" as="geometry">
            <mxPoint x="50" y="340" as="sourcePoint" />
            <mxPoint x="540" y="340" as="targetPoint" />
          </mxGeometry>
        </mxCell>
      </root>
    </mxGraphModel>
  </diagram>
</mxfile>
